solid testaBraccioNoCam
facet normal 0.0 0.0 -1.0
  outer loop
    vertex 202.62564708723835 139.40556031172554 0.0
    vertex 202.62564708722826 107.90556031172495 0.0
    vertex 171.12564708724634 139.40556031173566 0.0
  endloop
endfacet
facet normal 0.0 0.0 -1.0
  outer loop
    vertex 158.6256470872424 191.4055603117314 0.0
    vertex 171.12564708724202 147.40556031174376 0.0
    vertex 158.6256470872424 95.40556031173087 0.0
  endloop
endfacet
facet normal 0.0 0.0 -1.0
  outer loop
    vertex 171.12564708724202 147.40556031174376 0.0
    vertex 158.6256470872424 191.4055603117314 0.0
    vertex 202.62564708724557 178.9055603117346 0.0
  endloop
endfacet
facet normal 0.0 0.0 -1.0
  outer loop
    vertex 202.62564708724557 178.9055603117346 0.0
    vertex 158.6256470872424 191.4055603117314 0.0
    vertex 254.6256470872424 191.4055603117314 0.0
  endloop
endfacet
facet normal 0.0 0.0 -1.0
  outer loop
    vertex 202.62564708724557 178.9055603117346 0.0
    vertex 254.6256470872424 191.4055603117314 0.0
    vertex 206.62564708724258 178.9055603117346 0.0
  endloop
endfacet
facet normal 0.0 0.0 -1.0
  outer loop
    vertex 206.62564708724258 178.9055603117346 0.0
    vertex 254.6256470872424 191.4055603117314 0.0
    vertex 210.62564708724528 178.9055603117346 0.0
  endloop
endfacet
facet normal 0.0 0.0 -1.0
  outer loop
    vertex 210.62564708724528 178.9055603117346 0.0
    vertex 254.6256470872424 191.4055603117314 0.0
    vertex 210.62564708724528 147.4055603117351 0.0
  endloop
endfacet
facet normal 0.0 0.0 -1.0
  outer loop
    vertex 210.62564708724528 147.4055603117351 0.0
    vertex 254.6256470872424 191.4055603117314 0.0
    vertex 242.12564708724426 147.4055603117221 0.0
  endloop
endfacet
facet normal 0.0 0.0 -1.0
  outer loop
    vertex 158.6256470872424 95.40556031173087 0.0
    vertex 202.62564708722826 107.90556031172495 0.0
    vertex 254.6256470872424 95.40556031173087 0.0
  endloop
endfacet
facet normal 0.0 0.0 -1.0
  outer loop
    vertex 202.62564708722826 107.90556031172495 0.0
    vertex 158.6256470872424 95.40556031173087 0.0
    vertex 171.12564708724634 139.40556031173566 0.0
  endloop
endfacet
facet normal 0.0 0.0 -1.0
  outer loop
    vertex 171.12564708724634 139.40556031173566 0.0
    vertex 158.6256470872424 95.40556031173087 0.0
    vertex 171.12564708724418 143.40556031173105 0.0
  endloop
endfacet
facet normal 0.0 0.0 -1.0
  outer loop
    vertex 171.12564708724418 143.40556031173105 0.0
    vertex 158.6256470872424 95.40556031173087 0.0
    vertex 171.12564708724202 147.40556031174376 0.0
  endloop
endfacet
facet normal 0.0 0.0 -1.0
  outer loop
    vertex 254.6256470872424 95.40556031173087 0.0
    vertex 202.62564708722826 107.90556031172495 0.0
    vertex 206.62564708724258 107.90556031172784 0.0
  endloop
endfacet
facet normal 0.0 0.0 -1.0
  outer loop
    vertex 254.6256470872424 95.40556031173087 0.0
    vertex 206.62564708724258 107.90556031172784 0.0
    vertex 210.62564708723085 107.90556031173072 0.0
  endloop
endfacet
facet normal 0.0 0.0 -1.0
  outer loop
    vertex 254.6256470872424 95.40556031173087 0.0
    vertex 210.62564708723085 107.90556031173072 0.0
    vertex 210.6256470872424 139.4055603117241 0.0
  endloop
endfacet
facet normal 0.0 0.0 -1.0
  outer loop
    vertex 254.6256470872424 95.40556031173087 0.0
    vertex 210.6256470872424 139.4055603117241 0.0
    vertex 242.12564708723994 139.4055603117111 0.0
  endloop
endfacet
facet normal 0.0 0.0 -1.0
  outer loop
    vertex 254.6256470872424 95.40556031173087 0.0
    vertex 242.12564708723994 139.4055603117111 0.0
    vertex 242.1256470872421 143.40556031173105 0.0
  endloop
endfacet
facet normal 0.0 0.0 -1.0
  outer loop
    vertex 254.6256470872424 95.40556031173087 0.0
    vertex 242.1256470872421 143.40556031173105 0.0
    vertex 242.12564708724426 147.4055603117221 0.0
  endloop
endfacet
facet normal 0.0 0.0 -1.0
  outer loop
    vertex 254.6256470872424 95.40556031173087 0.0
    vertex 242.12564708724426 147.4055603117221 0.0
    vertex 254.6256470872424 191.4055603117314 0.0
  endloop
endfacet
facet normal 0.0 0.0 -1.0
  outer loop
    vertex 202.62564708724557 178.9055603117346 0.0
    vertex 202.62564708724557 147.4055603117351 0.0
    vertex 171.12564708724202 147.40556031174376 0.0
  endloop
endfacet
facet normal 0.0 0.0 -1.0
  outer loop
    vertex 202.62564708724557 147.4055603117351 0.0
    vertex 202.62564708724557 178.9055603117346 0.0
    vertex 202.62564708724557 147.8898839834509 0.0
  endloop
endfacet
facet normal -4.3112891554261353e-19 1.59186049445614e-17 1.0
  outer loop
    vertex 254.6256470872424 95.40556031173087 21.99999999999999
    vertex 158.6256470872424 191.4055603117314 21.99999999999999
    vertex 158.6256470872424 95.40556031173087 21.99999999999999
  endloop
endfacet
facet normal -4.3112891554261353e-19 1.59186049445614e-17 1.0
  outer loop
    vertex 158.6256470872424 191.4055603117314 21.99999999999999
    vertex 254.6256470872424 95.40556031173087 21.99999999999999
    vertex 254.6256470872424 191.4055603117314 21.99999999999999
  endloop
endfacet
facet normal -1.0 0.0 0.0
  outer loop
    vertex 158.6256470872424 191.4055603117314 21.99999999999999
    vertex 158.6256470872424 95.40556031173087 0.0
    vertex 158.6256470872424 95.40556031173087 21.99999999999999
  endloop
endfacet
facet normal -1.0 0.0 0.0
  outer loop
    vertex 158.6256470872424 95.40556031173087 0.0
    vertex 158.6256470872424 191.4055603117314 21.99999999999999
    vertex 158.6256470872424 191.4055603117314 0.0
  endloop
endfacet
facet normal -0.0 1.0 -0.0
  outer loop
    vertex 158.6256470872424 191.4055603117314 21.99999999999999
    vertex 254.6256470872424 191.4055603117314 0.0
    vertex 158.6256470872424 191.4055603117314 0.0
  endloop
endfacet
facet normal -0.0 1.0 -0.0
  outer loop
    vertex 254.6256470872424 191.4055603117314 0.0
    vertex 158.6256470872424 191.4055603117314 21.99999999999999
    vertex 254.6256470872424 191.4055603117314 21.99999999999999
  endloop
endfacet
facet normal 1.0 -6.574442678732108e-17 5.127211786450728e-16
  outer loop
    vertex 254.6256470872424 191.4055603117314 0.0
    vertex 254.6256470872424 95.40556031173087 21.99999999999999
    vertex 254.6256470872424 95.40556031173087 0.0
  endloop
endfacet
facet normal 1.0 -6.574442678732108e-17 5.127211786450728e-16
  outer loop
    vertex 254.6256470872424 95.40556031173087 21.99999999999999
    vertex 254.6256470872424 191.4055603117314 0.0
    vertex 254.6256470872424 191.4055603117314 21.99999999999999
  endloop
endfacet
facet normal 0.0 -1.0 0.0
  outer loop
    vertex 254.6256470872424 95.40556031173087 21.99999999999999
    vertex 158.6256470872424 95.40556031173087 0.0
    vertex 254.6256470872424 95.40556031173087 0.0
  endloop
endfacet
facet normal 0.0 -1.0 0.0
  outer loop
    vertex 158.6256470872424 95.40556031173087 0.0
    vertex 254.6256470872424 95.40556031173087 21.99999999999999
    vertex 158.6256470872424 95.40556031173087 21.99999999999999
  endloop
endfacet
facet normal 0.0 0.0 -1.0
  outer loop
    vertex 202.62564708724557 147.4055603117351 14.999999999999993
    vertex 171.12564708724418 143.40556031173105 14.999999999999993
    vertex 171.12564708724202 147.40556031174376 14.999999999999993
  endloop
endfacet
facet normal 0.0 0.0 -1.0
  outer loop
    vertex 171.12564708724418 143.40556031173105 14.999999999999993
    vertex 202.62564708724557 147.4055603117351 14.999999999999993
    vertex 171.12564708724634 139.40556031173566 14.999999999999993
  endloop
endfacet
facet normal 0.0 0.0 -1.0
  outer loop
    vertex 171.12564708724634 139.40556031173566 14.999999999999993
    vertex 202.62564708724557 147.4055603117351 14.999999999999993
    vertex 202.62564708723835 139.40556031172554 14.999999999999993
  endloop
endfacet
facet normal 0.0 0.0 -1.0
  outer loop
    vertex 206.62564708724258 178.9055603117346 14.999999999999993
    vertex 202.62564708724557 147.8898839834509 14.999999999999993
    vertex 202.62564708724557 178.9055603117346 14.999999999999993
  endloop
endfacet
facet normal 0.0 0.0 -1.0
  outer loop
    vertex 202.62564708724557 147.8898839834509 14.999999999999993
    vertex 206.62564708724258 178.9055603117346 14.999999999999993
    vertex 202.62564708724557 147.4055603117351 14.999999999999993
  endloop
endfacet
facet normal 0.0 0.0 -1.0
  outer loop
    vertex 202.62564708723835 139.40556031172554 14.999999999999993
    vertex 206.62564708724258 107.90556031172784 14.999999999999993
    vertex 202.62564708722826 107.90556031172495 14.999999999999993
  endloop
endfacet
facet normal 0.0 0.0 -1.0
  outer loop
    vertex 206.62564708724258 107.90556031172784 14.999999999999993
    vertex 202.62564708723835 139.40556031172554 14.999999999999993
    vertex 202.62564708724557 147.4055603117351 14.999999999999993
  endloop
endfacet
facet normal 0.0 0.0 -1.0
  outer loop
    vertex 206.62564708724258 107.90556031172784 14.999999999999993
    vertex 202.62564708724557 147.4055603117351 14.999999999999993
    vertex 206.62564708724258 178.9055603117346 14.999999999999993
  endloop
endfacet
facet normal 0.0 0.0 -1.0
  outer loop
    vertex 206.62564708724258 107.90556031172784 14.999999999999993
    vertex 206.62564708724258 178.9055603117346 14.999999999999993
    vertex 210.62564708724528 178.9055603117346 14.999999999999993
  endloop
endfacet
facet normal 0.0 0.0 -1.0
  outer loop
    vertex 206.62564708724258 107.90556031172784 14.999999999999993
    vertex 210.62564708724528 178.9055603117346 14.999999999999993
    vertex 210.62564708723085 107.90556031173072 14.999999999999993
  endloop
endfacet
facet normal 0.0 0.0 -1.0
  outer loop
    vertex 210.62564708723085 107.90556031173072 14.999999999999993
    vertex 210.62564708724528 178.9055603117346 14.999999999999993
    vertex 210.6256470872424 139.4055603117241 14.999999999999993
  endloop
endfacet
facet normal 0.0 0.0 -1.0
  outer loop
    vertex 210.6256470872424 139.4055603117241 14.999999999999993
    vertex 210.62564708724528 178.9055603117346 14.999999999999993
    vertex 210.62564708724528 147.4055603117351 14.999999999999993
  endloop
endfacet
facet normal 0.0 0.0 -1.0
  outer loop
    vertex 210.6256470872424 139.4055603117241 14.999999999999993
    vertex 210.62564708724528 147.4055603117351 14.999999999999993
    vertex 242.12564708723994 139.4055603117111 14.999999999999993
  endloop
endfacet
facet normal 0.0 0.0 -1.0
  outer loop
    vertex 242.12564708723994 139.4055603117111 14.999999999999993
    vertex 210.62564708724528 147.4055603117351 14.999999999999993
    vertex 242.1256470872421 143.40556031173105 14.999999999999993
  endloop
endfacet
facet normal 0.0 0.0 -1.0
  outer loop
    vertex 242.1256470872421 143.40556031173105 14.999999999999993
    vertex 210.62564708724528 147.4055603117351 14.999999999999993
    vertex 242.12564708724426 147.4055603117221 14.999999999999993
  endloop
endfacet
facet normal 7.219114195343802e-13 -1.0 0.0
  outer loop
    vertex 210.62564708723085 107.90556031173072 14.999999999999993
    vertex 206.62564708724258 107.90556031172784 0.0
    vertex 210.62564708723085 107.90556031173072 0.0
  endloop
endfacet
facet normal 7.219114195343802e-13 -1.0 0.0
  outer loop
    vertex 206.62564708724258 107.90556031172784 0.0
    vertex 210.62564708723085 107.90556031173072 14.999999999999993
    vertex 206.62564708724258 107.90556031172784 14.999999999999993
  endloop
endfacet
facet normal 7.219114195296735e-13 -1.0 0.0
  outer loop
    vertex 206.62564708724258 107.90556031172784 14.999999999999993
    vertex 202.62564708722826 107.90556031172495 0.0
    vertex 206.62564708724258 107.90556031172784 0.0
  endloop
endfacet
facet normal 7.219114195296735e-13 -1.0 0.0
  outer loop
    vertex 202.62564708722826 107.90556031172495 0.0
    vertex 206.62564708724258 107.90556031172784 14.999999999999993
    vertex 202.62564708722826 107.90556031172495 14.999999999999993
  endloop
endfacet
facet normal 1.0 -3.2084951979211026e-13 -0.0
  outer loop
    vertex 202.62564708723835 139.40556031172554 0.0
    vertex 202.62564708722826 107.90556031172495 14.999999999999993
    vertex 202.62564708722826 107.90556031172495 0.0
  endloop
endfacet
facet normal 1.0 -3.2084951979211026e-13 -0.0
  outer loop
    vertex 202.62564708722826 107.90556031172495 14.999999999999993
    vertex 202.62564708723835 139.40556031172554 0.0
    vertex 202.62564708723835 139.40556031172554 14.999999999999993
  endloop
endfacet
facet normal 3.2084951979219756e-13 1.0 -0.0
  outer loop
    vertex 171.12564708724634 139.40556031173566 14.999999999999993
    vertex 202.62564708723835 139.40556031172554 0.0
    vertex 171.12564708724634 139.40556031173566 0.0
  endloop
endfacet
facet normal 3.2084951979219756e-13 1.0 -0.0
  outer loop
    vertex 202.62564708723835 139.40556031172554 0.0
    vertex 171.12564708724634 139.40556031173566 14.999999999999993
    vertex 202.62564708723835 139.40556031172554 14.999999999999993
  endloop
endfacet
facet normal -1.0 -5.414335646498203e-13 0.0
  outer loop
    vertex 171.12564708724418 143.40556031173105 14.999999999999993
    vertex 171.12564708724634 139.40556031173566 0.0
    vertex 171.12564708724634 139.40556031173566 14.999999999999993
  endloop
endfacet
facet normal -1.0 -5.414335646498203e-13 0.0
  outer loop
    vertex 171.12564708724634 139.40556031173566 0.0
    vertex 171.12564708724418 143.40556031173105 14.999999999999993
    vertex 171.12564708724418 143.40556031173105 0.0
  endloop
endfacet
facet normal -1.0 -5.414335646474751e-13 0.0
  outer loop
    vertex 171.12564708724202 147.40556031174376 14.999999999999993
    vertex 171.12564708724418 143.40556031173105 0.0
    vertex 171.12564708724418 143.40556031173105 14.999999999999993
  endloop
endfacet
facet normal -1.0 -5.414335646474751e-13 0.0
  outer loop
    vertex 171.12564708724418 143.40556031173105 0.0
    vertex 171.12564708724202 147.40556031174376 14.999999999999993
    vertex 171.12564708724202 147.40556031174376 0.0
  endloop
endfacet
facet normal -2.750138741074971e-13 -1.0 0.0
  outer loop
    vertex 202.62564708724557 147.4055603117351 14.999999999999993
    vertex 171.12564708724202 147.40556031174376 0.0
    vertex 202.62564708724557 147.4055603117351 0.0
  endloop
endfacet
facet normal -2.750138741074971e-13 -1.0 0.0
  outer loop
    vertex 171.12564708724202 147.40556031174376 0.0
    vertex 202.62564708724557 147.4055603117351 14.999999999999993
    vertex 171.12564708724202 147.40556031174376 14.999999999999993
  endloop
endfacet
facet normal 1.0 -0.0 -0.0
  outer loop
    vertex 202.62564708724557 147.8898839834509 0.0
    vertex 202.62564708724557 147.4055603117351 14.999999999999993
    vertex 202.62564708724557 147.4055603117351 0.0
  endloop
endfacet
facet normal 1.0 -0.0 -0.0
  outer loop
    vertex 202.62564708724557 147.4055603117351 14.999999999999993
    vertex 202.62564708724557 147.8898839834509 0.0
    vertex 202.62564708724557 147.8898839834509 14.999999999999993
  endloop
endfacet
facet normal 1.0 -0.0 -0.0
  outer loop
    vertex 202.62564708724557 178.9055603117346 0.0
    vertex 202.62564708724557 147.8898839834509 14.999999999999993
    vertex 202.62564708724557 147.8898839834509 0.0
  endloop
endfacet
facet normal 1.0 -0.0 -0.0
  outer loop
    vertex 202.62564708724557 147.8898839834509 14.999999999999993
    vertex 202.62564708724557 178.9055603117346 0.0
    vertex 202.62564708724557 178.9055603117346 14.999999999999993
  endloop
endfacet
facet normal -0.0 1.0 -0.0
  outer loop
    vertex 202.62564708724557 178.9055603117346 14.999999999999993
    vertex 206.62564708724258 178.9055603117346 0.0
    vertex 202.62564708724557 178.9055603117346 0.0
  endloop
endfacet
facet normal -0.0 1.0 -0.0
  outer loop
    vertex 206.62564708724258 178.9055603117346 0.0
    vertex 202.62564708724557 178.9055603117346 14.999999999999993
    vertex 206.62564708724258 178.9055603117346 14.999999999999993
  endloop
endfacet
facet normal -0.0 1.0 -0.0
  outer loop
    vertex 206.62564708724258 178.9055603117346 14.999999999999993
    vertex 210.62564708724528 178.9055603117346 0.0
    vertex 206.62564708724258 178.9055603117346 0.0
  endloop
endfacet
facet normal -0.0 1.0 -0.0
  outer loop
    vertex 210.62564708724528 178.9055603117346 0.0
    vertex 206.62564708724258 178.9055603117346 14.999999999999993
    vertex 210.62564708724528 178.9055603117346 14.999999999999993
  endloop
endfacet
facet normal -1.0 0.0 0.0
  outer loop
    vertex 210.62564708724528 178.9055603117346 14.999999999999993
    vertex 210.62564708724528 147.4055603117351 0.0
    vertex 210.62564708724528 147.4055603117351 14.999999999999993
  endloop
endfacet
facet normal -1.0 0.0 0.0
  outer loop
    vertex 210.62564708724528 147.4055603117351 0.0
    vertex 210.62564708724528 178.9055603117346 14.999999999999993
    vertex 210.62564708724528 178.9055603117346 0.0
  endloop
endfacet
facet normal -4.125208111613059e-13 -1.0 0.0
  outer loop
    vertex 242.12564708724426 147.4055603117221 14.999999999999993
    vertex 210.62564708724528 147.4055603117351 0.0
    vertex 242.12564708724426 147.4055603117221 0.0
  endloop
endfacet
facet normal -4.125208111613059e-13 -1.0 0.0
  outer loop
    vertex 210.62564708724528 147.4055603117351 0.0
    vertex 242.12564708724426 147.4055603117221 14.999999999999993
    vertex 210.62564708724528 147.4055603117351 14.999999999999993
  endloop
endfacet
facet normal 1.0 -5.414335646504066e-13 -0.0
  outer loop
    vertex 242.12564708724426 147.4055603117221 0.0
    vertex 242.1256470872421 143.40556031173105 14.999999999999993
    vertex 242.1256470872421 143.40556031173105 0.0
  endloop
endfacet
facet normal 1.0 -5.414335646504066e-13 -0.0
  outer loop
    vertex 242.1256470872421 143.40556031173105 14.999999999999993
    vertex 242.12564708724426 147.4055603117221 0.0
    vertex 242.12564708724426 147.4055603117221 14.999999999999993
  endloop
endfacet
facet normal 1.0 -5.414335646464978e-13 -0.0
  outer loop
    vertex 242.1256470872421 143.40556031173105 0.0
    vertex 242.12564708723994 139.4055603117111 14.999999999999993
    vertex 242.12564708723994 139.4055603117111 0.0
  endloop
endfacet
facet normal 1.0 -5.414335646464978e-13 -0.0
  outer loop
    vertex 242.12564708723994 139.4055603117111 14.999999999999993
    vertex 242.1256470872421 143.40556031173105 0.0
    vertex 242.1256470872421 143.40556031173105 14.999999999999993
  endloop
endfacet
facet normal 4.125208111613248e-13 1.0 -0.0
  outer loop
    vertex 210.6256470872424 139.4055603117241 14.999999999999993
    vertex 242.12564708723994 139.4055603117111 0.0
    vertex 210.6256470872424 139.4055603117241 0.0
  endloop
endfacet
facet normal 4.125208111613248e-13 1.0 -0.0
  outer loop
    vertex 242.12564708723994 139.4055603117111 0.0
    vertex 210.6256470872424 139.4055603117241 14.999999999999993
    vertex 242.12564708723994 139.4055603117111 14.999999999999993
  endloop
endfacet
facet normal -1.0 3.666851654767815e-13 0.0
  outer loop
    vertex 210.6256470872424 139.4055603117241 14.999999999999993
    vertex 210.62564708723085 107.90556031173072 0.0
    vertex 210.62564708723085 107.90556031173072 14.999999999999993
  endloop
endfacet
facet normal -1.0 3.666851654767815e-13 0.0
  outer loop
    vertex 210.62564708723085 107.90556031173072 0.0
    vertex 210.6256470872424 139.4055603117241 14.999999999999993
    vertex 210.6256470872424 139.4055603117241 0.0
  endloop
endfacet
endsolid testaBraccioNoCam
