solid braccioCam1
facet normal -1.0616344404886195e-14 -1.0 2.161750254284575e-30
  outer loop
    vertex 12.917136819895353 0.6417664197360408 33.92696857452393
    vertex 4.417136819895346 0.641766419736131 28.963484764099118
    vertex 12.917136819895353 0.6417664197360408 28.963484764099118
  endloop
endfacet
facet normal 1.0 2.137383535706034e-15 3.535680425545813e-15
  outer loop
    vertex 12.917136819895306 12.78287397894014 16.385144710540786
    vertex 12.917136819895306 12.369505753842473 16.63503336906434
    vertex 12.917136819895353 0.6417664197360408 10.963483810424814
  endloop
endfacet
facet normal 1.0 -1.5952768975807398e-15 1.3428924043216944e-15
  outer loop
    vertex 12.917136819895353 27.641766419736037 2.8199664825478975e-15
    vertex 12.917136819895306 0.6417664197360408 6.000000000000009
    vertex 12.917136819895306 0.6417664197360408 1.127986593019159e-14
  endloop
endfacet
facet normal 1.0 -1.5952768975807398e-15 1.3428924043216944e-15
  outer loop
    vertex 12.917136819895306 0.6417664197360408 6.000000000000009
    vertex 12.917136819895353 27.641766419736037 2.8199664825478975e-15
    vertex 12.917136819895306 14.64176451238748 15.926969051361088
  endloop
endfacet
facet normal 1.0 -1.5952768975807398e-15 1.3428924043216944e-15
  outer loop
    vertex 12.917136819895306 14.64176451238748 15.926969051361088
    vertex 12.917136819895353 27.641766419736037 2.8199664825478975e-15
    vertex 12.917136819895353 28.6417645123875 5.999999999999997
  endloop
endfacet
facet normal 1.0 -1.5952768975807398e-15 1.3428924043216944e-15
  outer loop
    vertex 12.917136819895353 28.6417645123875 5.999999999999997
    vertex 12.917136819895353 27.641766419736037 2.8199664825478975e-15
    vertex 12.917136819895353 28.6417645123875 2.8199664825478975e-15
  endloop
endfacet
facet normal -1.0616344404886193e-14 -1.0 2.161750254284585e-30
  outer loop
    vertex 4.417136819895346 0.641766419736131 10.963483810424814
    vertex 4.417136819895346 0.641766419736131 6.000000000000009
    vertex 12.917136819895353 0.6417664197360408 10.963483810424814
  endloop
endfacet
facet normal 1.0 0.0 0.0
  outer loop
    vertex 12.917136819895306 14.64176451238748 15.926969051361088
    vertex 12.917136819895306 14.159621110287834 15.95613336563111
    vertex 12.917136819895306 0.6417664197360408 6.000000000000009
  endloop
endfacet
facet normal 1.0 -4.511946372076604e-15 5.588908884770365e-32
  outer loop
    vertex 12.917136819895353 28.6417645123875 33.92696857452391
    vertex 12.917136819895306 18.64176451238743 19.92696882784367
    vertex 12.917136819895353 28.6417645123875 5.999999999999997
  endloop
endfacet
facet normal 1.0 1.9509724569395093e-14 -1.1259145005922029e-13
  outer loop
    vertex 12.917136819895262 11.98927580389138 16.932925939559947
    vertex 12.917136819895306 11.647723069516347 17.274478197097785
    vertex 12.917136819895353 0.6417664197360408 15.76811408996583
  endloop
endfacet
facet normal -2.618975452241232e-15 1.0 1.807238704623722e-15
  outer loop
    vertex 4.4171368198953 28.641764512387407 33.92696857452391
    vertex 7.01527801328521 28.641764512387407 5.999999999999997
    vertex 4.417136819895291 28.6417645123875 5.999999999999997
  endloop
endfacet
facet normal -2.618975452241232e-15 1.0 1.807238704623722e-15
  outer loop
    vertex 7.01527801328521 28.641764512387407 5.999999999999997
    vertex 4.4171368198953 28.641764512387407 33.92696857452391
    vertex 12.917136819895353 28.6417645123875 5.999999999999997
  endloop
endfacet
facet normal -1.0616344404886193e-14 -1.0 1.0293964107797872e-30
  outer loop
    vertex 12.917136819895353 0.6417664197360408 28.963484764099118
    vertex 4.417136819895346 0.641766419736131 24.158854007720954
    vertex 12.917136819895353 0.6417664197360408 24.158854007720954
  endloop
endfacet
facet normal -1.0616344404886193e-14 -1.0 1.0293964107797872e-30
  outer loop
    vertex 4.417136819895346 0.641766419736131 24.158854007720954
    vertex 12.917136819895353 0.6417664197360408 28.963484764099118
    vertex 4.417136819895346 0.641766419736131 28.963484764099118
  endloop
endfacet
facet normal -1.0616344404886198e-14 -1.0 1.5128930026413633e-30
  outer loop
    vertex 4.417136819895346 0.641766419736131 24.158854007720954
    vertex 4.417136819895346 0.641766419736131 15.76811408996583
    vertex 12.917136819895353 0.6417664197360408 24.158854007720954
  endloop
endfacet
facet normal 1.0 -2.4191522180472956e-14 9.053199302477807e-14
  outer loop
    vertex 12.917136819895306 10.757998338070998 18.969706177711494
    vertex 12.917136819895262 10.670931687680403 19.444822072982795
    vertex 12.917136819895353 0.6417664197360408 15.76811408996583
  endloop
endfacet
facet normal 1.0 5.588982571812257e-14 -1.3462104329095026e-13
  outer loop
    vertex 12.917136819895306 13.684504380551507 16.043201446533207
    vertex 12.917136819895353 13.223345628110083 16.18690395355225
    vertex 12.917136819895353 0.6417664197360408 10.963483810424814
  endloop
endfacet
facet normal 1.0 4.2364818644055943e-14 -9.101751943095506e-14
  outer loop
    vertex 12.917136819895262 10.670931687680403 19.444822072982795
    vertex 12.917136819895306 10.641764512387441 19.92696882784367
    vertex 12.917136819895353 0.6417664197360408 15.76811408996583
  endloop
endfacet
facet normal 1.0 -0.0 -0.0
  outer loop
    vertex 12.917136819895353 28.6417645123875 5.999999999999997
    vertex 12.917136819895353 15.599028458920658 16.043201446533207
    vertex 12.917136819895353 15.123911729184377 15.95613336563111
  endloop
endfacet
facet normal 1.0 -4.291190357042853e-14 9.66894633389407e-14
  outer loop
    vertex 12.917136819895306 12.369505753842473 16.63503336906434
    vertex 12.917136819895262 11.98927580389138 16.932925939559947
    vertex 12.917136819895353 0.6417664197360408 10.963483810424814
  endloop
endfacet
facet normal 1.0 7.779813925839671e-14 6.741974423311008e-14
  outer loop
    vertex 12.917136819895353 28.6417645123875 5.999999999999997
    vertex 12.917136819895306 18.381831040707713 18.508549332618728
    vertex 12.917136819895353 18.18358885320771 18.068076133728038
  endloop
endfacet
facet normal -1.0616344404886195e-14 -1.0 1.512893002641363e-30
  outer loop
    vertex 12.917136819895353 0.6417664197360408 24.158854007720954
    vertex 4.417136819895346 0.641766419736131 15.76811408996583
    vertex 12.917136819895353 0.6417664197360408 15.76811408996583
  endloop
endfacet
facet normal 1.0 3.9257223813537395e-15 1.766801746201762e-15
  outer loop
    vertex 12.917136819895306 11.09994017156716 18.068076133728038
    vertex 12.917136819895306 10.901701798764362 18.508549332618728
    vertex 12.917136819895353 0.6417664197360408 15.76811408996583
  endloop
endfacet
facet normal 1.0 -3.186900875032621e-15 9.930866027524345e-16
  outer loop
    vertex 12.917136819895353 28.6417645123875 5.999999999999997
    vertex 12.917136819895306 18.525534501401122 18.969706177711494
    vertex 12.917136819895306 18.381831040707713 18.508549332618728
  endloop
endfacet
facet normal 1.0 -3.611587083159996e-15 6.618359710849138e-16
  outer loop
    vertex 12.917136819895353 28.6417645123875 5.999999999999997
    vertex 12.917136819895306 18.61260115179172 19.444822072982785
    vertex 12.917136819895306 18.525534501401122 18.969706177711494
  endloop
endfacet
facet normal -1.3657179275921124e-14 1.0 7.0373247779551925e-31
  outer loop
    vertex 7.015278013285254 2.0534599927340635 5.999999999999997
    vertex 10.318995626505442 2.0534599927341084 8.459899447643692e-15
    vertex 7.015278013285254 2.0534599927340635 8.459899447643692e-15
  endloop
endfacet
facet normal -1.3657179275921124e-14 1.0 7.0373247779551925e-31
  outer loop
    vertex 10.318995626505442 2.0534599927341084 8.459899447643692e-15
    vertex 7.015278013285254 2.0534599927340635 5.999999999999997
    vertex 10.318995626505442 2.0534599927341084 5.999999999999997
  endloop
endfacet
facet normal -1.3657179275921124e-14 1.0 7.0373247779551925e-31
  outer loop
    vertex 10.318995626505442 2.0534599927341084 5.999999999999997
    vertex 7.015278013285254 2.0534599927340635 5.999999999999997
    vertex 10.318995626505442 2.0534599927341084 7.926968574523935
  endloop
endfacet
facet normal 1.0 -6.544529656814172e-14 -6.792701205828498e-14
  outer loop
    vertex 12.917136819895353 28.6417645123875 5.999999999999997
    vertex 12.917136819895353 17.294257035580742 16.932925939559947
    vertex 12.917136819895306 16.914023270932304 16.63503336906434
  endloop
endfacet
facet normal 1.0 -4.511946372076603e-15 0.0
  outer loop
    vertex 12.917136819895353 28.6417645123875 33.92696857452391
    vertex 12.917136819895306 18.64176451238743 33.92696857452393
    vertex 12.917136819895306 18.64176451238743 19.92696882784367
  endloop
endfacet
facet normal 1.0 -1.0965783646023817e-14 1.1007192907395082e-13
  outer loop
    vertex 12.917136819895306 11.647723069516347 17.274478197097785
    vertex 12.917136819895262 11.349829545346408 17.654709815979007
    vertex 12.917136819895353 0.6417664197360408 15.76811408996583
  endloop
endfacet
facet normal -1.0616344404886137e-14 1.0 5.462873354496949e-31
  outer loop
    vertex 12.917136819895353 28.6417645123875 33.92696857452391
    vertex 12.917136819895353 28.6417645123875 5.999999999999997
    vertex 4.4171368198953 28.641764512387407 33.92696857452391
  endloop
endfacet
facet normal 1.0 6.965245926202346e-14 9.045508511063576e-14
  outer loop
    vertex 12.917136819895353 28.6417645123875 5.999999999999997
    vertex 12.917136819895306 16.060187211362038 16.18690395355225
    vertex 12.917136819895353 15.599028458920658 16.043201446533207
  endloop
endfacet
facet normal 1.0 1.792118240869142e-15 -3.269661422554751e-30
  outer loop
    vertex 7.01527801328521 27.230070939389183 7.926968574523924
    vertex 7.015278013285254 2.0534599927340635 7.926968574523935
    vertex 7.01527801328521 27.230070939389183 5.999999999999997
  endloop
endfacet
facet normal 0.0 0.0 1.0
  outer loop
    vertex 11.917136819895354 1.6417664197359938 7.926968574523935
    vertex 10.318995626505442 2.0534599927341084 7.926968574523935
    vertex 7.015278013285254 2.0534599927340635 7.926968574523935
  endloop
endfacet
facet normal 1.0 6.999720908278389e-15 -9.090281230695662e-15
  outer loop
    vertex 12.917136819895306 13.684504380551507 16.043201446533207
    vertex 12.917136819895353 0.6417664197360408 10.963483810424814
    vertex 12.917136819895306 0.6417664197360408 6.000000000000009
  endloop
endfacet
facet normal 1.0 -1.5388549629765444e-15 2.5455652058034696e-15
  outer loop
    vertex 12.917136819895353 28.6417645123875 5.999999999999997
    vertex 12.917136819895306 16.914023270932304 16.63503336906434
    vertex 12.917136819895306 16.50065886053198 16.385144710540775
  endloop
endfacet
facet normal -1.0 -1.80547358410189e-15 1.1601026961684785e-16
  outer loop
    vertex 4.4171368198953 28.641764512387407 33.92696857452391
    vertex 4.417136819895346 0.641766419736131 28.963484764099118
    vertex 4.417136819895346 0.641766419736131 33.92696857452393
  endloop
endfacet
facet normal -1.0 -1.80547358410189e-15 1.1601026961684785e-16
  outer loop
    vertex 4.417136819895346 0.641766419736131 28.963484764099118
    vertex 4.4171368198953 28.641764512387407 33.92696857452391
    vertex 4.417136819895346 0.641766419736131 24.158854007720954
  endloop
endfacet
facet normal -1.0 -1.80547358410189e-15 1.1601026961684785e-16
  outer loop
    vertex 4.417136819895346 0.641766419736131 24.158854007720954
    vertex 4.4171368198953 28.641764512387407 33.92696857452391
    vertex 4.417136819895346 0.641766419736131 15.76811408996583
  endloop
endfacet
facet normal -1.0 -1.80547358410189e-15 1.1601026961684785e-16
  outer loop
    vertex 4.417136819895346 0.641766419736131 15.76811408996583
    vertex 4.4171368198953 28.641764512387407 33.92696857452391
    vertex 4.417136819895346 0.641766419736131 10.963483810424814
  endloop
endfacet
facet normal -1.0 -1.80547358410189e-15 1.1601026961684785e-16
  outer loop
    vertex 4.417136819895346 0.641766419736131 10.963483810424814
    vertex 4.4171368198953 28.641764512387407 33.92696857452391
    vertex 4.417136819895346 0.641766419736131 6.000000000000009
  endloop
endfacet
facet normal -1.0 -1.80547358410189e-15 1.1601026961684785e-16
  outer loop
    vertex 4.417136819895346 0.641766419736131 6.000000000000009
    vertex 4.417136819895291 28.641764512387407 4.229949723821846e-15
    vertex 4.417136819895346 0.6417664197360408 1.127986593019159e-14
  endloop
endfacet
facet normal -1.0 -1.80547358410189e-15 1.1601026961684785e-16
  outer loop
    vertex 4.417136819895291 28.641764512387407 4.229949723821846e-15
    vertex 4.417136819895346 0.641766419736131 6.000000000000009
    vertex 4.4171368198953 28.641764512387407 33.92696857452391
  endloop
endfacet
facet normal -1.0 -1.80547358410189e-15 1.1601026961684785e-16
  outer loop
    vertex 4.417136819895291 28.641764512387407 4.229949723821846e-15
    vertex 4.4171368198953 28.641764512387407 33.92696857452391
    vertex 4.417136819895291 28.6417645123875 5.999999999999997
  endloop
endfacet
facet normal 1.0 7.952311329879524e-15 -2.5889611658433334e-30
  outer loop
    vertex 12.917136819895262 11.98927580389138 16.932925939559947
    vertex 12.917136819895353 0.6417664197360408 15.76811408996583
    vertex 12.917136819895353 0.6417664197360408 10.963483810424814
  endloop
endfacet
facet normal 1.0 2.4995732637933777e-14 -9.404079160683015e-14
  outer loop
    vertex 12.917136819895262 11.349829545346408 17.654709815979007
    vertex 12.917136819895306 11.09994017156716 18.068076133728038
    vertex 12.917136819895353 0.6417664197360408 15.76811408996583
  endloop
endfacet
facet normal 1.0 -6.971045366805736e-14 -6.404825321407283e-14
  outer loop
    vertex 12.917136819895353 28.6417645123875 5.999999999999997
    vertex 12.917136819895353 17.933703294125667 17.654709815979007
    vertex 12.917136819895306 17.635809769955728 17.274478197097785
  endloop
endfacet
facet normal 1.0 0.0 0.0
  outer loop
    vertex 12.917136819895306 14.159621110287834 15.95613336563111
    vertex 12.917136819895306 13.684504380551507 16.043201446533207
    vertex 12.917136819895306 0.6417664197360408 6.000000000000009
  endloop
endfacet
facet normal 1.0 -4.9151274219702825e-14 1.1838998833003067e-13
  outer loop
    vertex 12.917136819895353 13.223345628110083 16.18690395355225
    vertex 12.917136819895306 12.78287397894014 16.385144710540786
    vertex 12.917136819895353 0.6417664197360408 10.963483810424814
  endloop
endfacet
facet normal 1.0 4.059734011102332e-15 1.2650746337128035e-15
  outer loop
    vertex 12.917136819895306 10.901701798764362 18.508549332618728
    vertex 12.917136819895306 10.757998338070998 18.969706177711494
    vertex 12.917136819895353 0.6417664197360408 15.76811408996583
  endloop
endfacet
facet normal -1.0 2.8943860216484704e-15 -1.7496957012783785e-15
  outer loop
    vertex 11.917136819895354 27.641764512387343 7.926968574523924
    vertex 11.917136819895308 17.933703294125667 17.654709815979007
    vertex 11.917136819895308 18.18358885320771 18.068076133728038
  endloop
endfacet
facet normal -3.861182847611252e-14 0.8557806093884561 0.5173389107680987
  outer loop
    vertex 12.917136819895306 11.09994017156716 18.068076133728038
    vertex 12.917136819895262 11.349829545346408 17.654709815979007
    vertex 11.917136819895308 11.099940171567116 18.068076133728038
  endloop
endfacet
facet normal -3.552037221066703e-14 0.7871824006186035 0.6167202511320125
  outer loop
    vertex 11.917136819895308 11.349829545346452 17.654709815979007
    vertex 12.917136819895306 11.647723069516347 17.274478197097785
    vertex 11.917136819895354 11.647723069516303 17.274478197097785
  endloop
endfacet
facet normal 0.0 0.0 1.0
  outer loop
    vertex 12.917136819895353 28.6417645123875 33.92696857452391
    vertex 4.4171368198953 28.641764512387407 33.92696857452391
    vertex 11.917136819895354 27.641764512387343 33.92696857452391
  endloop
endfacet
facet normal 5.008598595048138e-17 -0.7071062875949321 0.7071072747778184
  outer loop
    vertex 12.917136819895353 17.294257035580742 16.932925939559947
    vertex 12.917136819895306 17.635809769955728 17.274478197097785
    vertex 11.917136819895354 17.294257035580742 16.932925939559947
  endloop
endfacet
facet normal 5.938019010059599e-30 2.506636873375933e-15 1.0
  outer loop
    vertex 12.917136819895306 18.64176451238743 33.92696857452393
    vertex 11.917136819895354 27.641764512387343 33.92696857452391
    vertex 11.917136819895308 18.64176451238743 33.92696857452393
  endloop
endfacet
facet normal 0.0 -0.6167168710887766 0.7871850487112095
  outer loop
    vertex 12.917136819895353 17.294257035580742 16.932925939559947
    vertex 11.917136819895308 16.914023270932304 16.63503336906434
    vertex 12.917136819895306 16.914023270932304 16.63503336906434
  endloop
endfacet
facet normal 0.0 -0.7871824006185129 0.616720251132128
  outer loop
    vertex 12.917136819895353 17.933703294125667 17.654709815979007
    vertex 11.917136819895308 17.635809769955728 17.274478197097785
    vertex 12.917136819895306 17.635809769955728 17.274478197097785
  endloop
endfacet
facet normal -1.3410048841160249e-14 0.2975023519064422 0.9547210852443428
  outer loop
    vertex 12.917136819895306 13.684504380551507 16.043201446533207
    vertex 11.917136819895308 13.684504380551463 16.043201446533207
    vertex 11.917136819895264 13.223345628110083 16.18690395355225
  endloop
endfacet
facet normal 0.0 1.0 0.0
  outer loop
    vertex 12.917136819895306 10.641764512387441 33.92696857452393
    vertex 12.917136819895306 10.641764512387441 19.92696882784367
    vertex 11.917136819895264 10.641764512387441 33.92696857452393
  endloop
endfacet
facet normal 8.057047641836268e-16 8.057047641836846e-16 1.0
  outer loop
    vertex 5.417136819895344 27.641764512387432 33.92696857452391
    vertex 4.4171368198953 28.641764512387407 33.92696857452391
    vertex 4.417136819895346 0.641766419736131 33.92696857452393
  endloop
endfacet
facet normal 2.0692382760343767e-17 -0.8557841058146074 0.5173331269453882
  outer loop
    vertex 12.917136819895353 18.18358885320771 18.068076133728038
    vertex 11.917136819895308 17.933703294125667 17.654709815979007
    vertex 12.917136819895353 17.933703294125667 17.654709815979007
  endloop
endfacet
facet normal 0.0 -0.2975023519064157 0.954721085244351
  outer loop
    vertex 12.917136819895306 16.060187211362038 16.18690395355225
    vertex 11.917136819895354 16.060187211362038 16.18690395355225
    vertex 11.917136819895308 15.599028458920614 16.043201446533207
  endloop
endfacet
facet normal -1.8547921139155606e-17 0.9547201749645043 0.29750527308897645
  outer loop
    vertex 12.917136819895306 10.757998338070998 18.969706177711494
    vertex 12.917136819895306 10.901701798764362 18.508549332618728
    vertex 11.917136819895308 10.757998338070998 18.969706177711494
  endloop
endfacet
facet normal -8.613654577023624e-14 -0.9547201749644777 0.29750527308906155
  outer loop
    vertex 12.917136819895306 18.525534501401122 18.969706177711494
    vertex 11.917136819895308 18.381831040707805 18.508549332618728
    vertex 12.917136819895306 18.381831040707713 18.508549332618728
  endloop
endfacet
facet normal 2.0692382760343764e-17 -0.8557841058146072 0.5173331269453882
  outer loop
    vertex 11.917136819895308 18.18358885320771 18.068076133728038
    vertex 11.917136819895308 17.933703294125667 17.654709815979007
    vertex 12.917136819895353 18.18358885320771 18.068076133728038
  endloop
endfacet
facet normal 9.001500441914301e-18 0.9836204827970236 0.18025189547450102
  outer loop
    vertex 12.917136819895262 10.670931687680403 19.444822072982795
    vertex 12.917136819895306 10.757998338070998 18.969706177711494
    vertex 11.917136819895308 10.670931687680403 19.444822072982795
  endloop
endfacet
facet normal 0.0 0.9836204827970236 0.18025189547450102
  outer loop
    vertex 11.917136819895308 10.670931687680403 19.444822072982795
    vertex 12.917136819895306 10.757998338070998 18.969706177711494
    vertex 11.917136819895308 10.757998338070998 18.969706177711494
  endloop
endfacet
facet normal -4.1109899357116505e-14 0.9119017999260031 0.41040846396208264
  outer loop
    vertex 11.917136819895354 10.901701798764407 18.508549332618728
    vertex 12.917136819895306 11.09994017156716 18.068076133728038
    vertex 11.917136819895308 11.099940171567116 18.068076133728038
  endloop
endfacet
facet normal -1.0 -2.065653240965777e-15 -2.636598915918472e-15
  outer loop
    vertex 11.917136819895308 12.36950575384252 16.63503336906434
    vertex 11.917136819895354 1.6417664197359938 7.926968574523935
    vertex 11.917136819895308 11.989275803891333 16.932925939559947
  endloop
endfacet
facet normal -1.0 5.013273746751863e-15 3.513620716011586e-32
  outer loop
    vertex 11.917136819895354 27.641764512387343 7.926968574523924
    vertex 11.917136819895308 18.64176451238743 19.92696882784367
    vertex 11.917136819895354 27.641764512387343 33.92696857452391
  endloop
endfacet
facet normal -1.0 -8.5516375734253e-14 1.3332414926763464e-13
  outer loop
    vertex 11.917136819895308 14.641764512387434 15.926969051361088
    vertex 11.917136819895354 1.6417664197359938 7.926968574523935
    vertex 11.917136819895354 14.15962111028779 15.95613336563111
  endloop
endfacet
facet normal 2.21755684299747e-18 0.9981752211123063 0.06038400415175053
  outer loop
    vertex 11.917136819895264 10.641764512387441 19.92696882784367
    vertex 12.917136819895262 10.670931687680403 19.444822072982795
    vertex 11.917136819895308 10.670931687680403 19.444822072982795
  endloop
endfacet
facet normal -1.0 6.572029053652592e-14 -1.0307389087441215e-13
  outer loop
    vertex 11.917136819895308 13.684504380551463 16.043201446533207
    vertex 11.917136819895354 1.6417664197359938 7.926968574523935
    vertex 11.917136819895264 13.223345628110083 16.18690395355225
  endloop
endfacet
facet normal 3.861182847611227e-14 0.8557806093883736 0.5173389107682355
  outer loop
    vertex 11.917136819895308 11.099940171567116 18.068076133728038
    vertex 12.917136819895262 11.349829545346408 17.654709815979007
    vertex 11.917136819895308 11.349829545346452 17.654709815979007
  endloop
endfacet
facet normal -1.0 -6.076551130877275e-14 -8.004030308582189e-14
  outer loop
    vertex 11.917136819895354 27.641764512387343 7.926968574523924
    vertex 11.917136819895354 16.50065886053189 16.385144710540775
    vertex 11.917136819895308 16.914023270932304 16.63503336906434
  endloop
endfacet
facet normal 0.0 0.0 1.0
  outer loop
    vertex 12.917136819895306 10.641764512387441 33.92696857452393
    vertex 11.917136819895264 10.641764512387441 33.92696857452393
    vertex 11.917136819895354 1.6417664197359938 33.92696857452393
  endloop
endfacet
facet normal 3.5497876724779056e-14 0.7871824006185129 0.6167202511321281
  outer loop
    vertex 12.917136819895262 11.349829545346408 17.654709815979007
    vertex 12.917136819895306 11.647723069516347 17.274478197097785
    vertex 11.917136819895308 11.349829545346452 17.654709815979007
  endloop
endfacet
facet normal -2.780465207298794e-14 0.6167207050770604 0.7871820449738761
  outer loop
    vertex 12.917136819895306 12.369505753842473 16.63503336906434
    vertex 11.917136819895308 11.989275803891333 16.932925939559947
    vertex 12.917136819895262 11.98927580389138 16.932925939559947
  endloop
endfacet
facet normal 2.784964341937115e-14 0.6167207050769699 0.7871820449739473
  outer loop
    vertex 12.917136819895306 12.369505753842473 16.63503336906434
    vertex 11.917136819895308 12.36950575384252 16.63503336906434
    vertex 11.917136819895308 11.989275803891333 16.932925939559947
  endloop
endfacet
facet normal 2.716502908432909e-15 -0.06037804501189567 0.9981755815890017
  outer loop
    vertex 12.917136819895353 15.123911729184377 15.95613336563111
    vertex 11.917136819895308 14.641764512387434 15.926969051361088
    vertex 12.917136819895306 14.64176451238748 15.926969051361088
  endloop
endfacet
facet normal -2.7231985812140853e-15 0.060378520978804064 0.9981755527984105
  outer loop
    vertex 12.917136819895306 14.64176451238748 15.926969051361088
    vertex 11.917136819895308 14.641764512387434 15.926969051361088
    vertex 11.917136819895354 14.15962111028779 15.95613336563111
  endloop
endfacet
facet normal 0.0 -0.7071062875949321 0.7071072747778184
  outer loop
    vertex 12.917136819895306 17.635809769955728 17.274478197097785
    vertex 11.917136819895308 17.635809769955728 17.274478197097785
    vertex 11.917136819895354 17.294257035580742 16.932925939559947
  endloop
endfacet
facet normal 0.0 -1.0 0.0
  outer loop
    vertex 11.917136819895308 18.64176451238743 33.92696857452393
    vertex 11.917136819895308 18.64176451238743 19.92696882784367
    vertex 12.917136819895306 18.64176451238743 33.92696857452393
  endloop
endfacet
facet normal 0.0 1.0 0.0
  outer loop
    vertex 11.917136819895264 10.641764512387441 33.92696857452393
    vertex 12.917136819895306 10.641764512387441 19.92696882784367
    vertex 11.917136819895264 10.641764512387441 19.92696882784367
  endloop
endfacet
facet normal -8.128322471530078e-15 0.18025445449954744 0.9836200138432885
  outer loop
    vertex 12.917136819895306 14.159621110287834 15.95613336563111
    vertex 11.917136819895308 13.684504380551463 16.043201446533207
    vertex 12.917136819895306 13.684504380551507 16.043201446533207
  endloop
endfacet
facet normal 0.0 0.0 1.0
  outer loop
    vertex 11.917136819895354 1.6417664197359938 33.92696857452393
    vertex 5.4171368198952985 1.6417664197360842 33.92696857452393
    vertex 4.417136819895346 0.641766419736131 33.92696857452393
  endloop
endfacet
facet normal 2.21755790043828e-18 -0.9981756970917703 0.060376135478832804
  outer loop
    vertex 11.917136819895308 18.64176451238743 19.92696882784367
    vertex 12.917136819895306 18.61260115179172 19.444822072982785
    vertex 12.917136819895306 18.64176451238743 19.92696882784367
  endloop
endfacet
facet normal -8.229720773728915e-14 -0.9118988442615729 0.41041503119940437
  outer loop
    vertex 11.917136819895308 18.381831040707805 18.508549332618728
    vertex 11.917136819895308 18.18358885320771 18.068076133728038
    vertex 12.917136819895306 18.381831040707713 18.508549332618728
  endloop
endfacet
facet normal 3.705150426634673e-14 -0.4104137692360839 0.9118994122278129
  outer loop
    vertex 12.917136819895306 16.50065886053198 16.385144710540775
    vertex 11.917136819895354 16.50065886053189 16.385144710540775
    vertex 11.917136819895354 16.060187211362038 16.18690395355225
  endloop
endfacet
facet normal 9.001500441913907e-18 -0.9836204827970227 0.18025189547450515
  outer loop
    vertex 12.917136819895306 18.61260115179172 19.444822072982785
    vertex 11.917136819895308 18.525534501401122 18.969706177711494
    vertex 12.917136819895306 18.525534501401122 18.969706177711494
  endloop
endfacet
facet normal -3.1879730057477955e-14 0.7071062875948853 0.7071072747778653
  outer loop
    vertex 12.917136819895306 11.647723069516347 17.274478197097785
    vertex 12.917136819895262 11.98927580389138 16.932925939559947
    vertex 11.917136819895354 11.647723069516303 17.274478197097785
  endloop
endfacet
facet normal -8.12832247153081e-15 0.18025445449954738 0.9836200138432885
  outer loop
    vertex 12.917136819895306 14.159621110287834 15.95613336563111
    vertex 11.917136819895354 14.15962111028779 15.95613336563111
    vertex 11.917136819895308 13.684504380551463 16.043201446533207
  endloop
endfacet
facet normal 9.001500441913908e-18 -0.9836204827970227 0.18025189547450518
  outer loop
    vertex 11.917136819895308 18.61260115179172 19.444822072982785
    vertex 11.917136819895308 18.525534501401122 18.969706177711494
    vertex 12.917136819895306 18.61260115179172 19.444822072982785
  endloop
endfacet
facet normal -2.720980992793147e-15 0.060378520978804064 0.9981755527984105
  outer loop
    vertex 12.917136819895306 14.64176451238748 15.926969051361088
    vertex 11.917136819895354 14.15962111028779 15.95613336563111
    vertex 12.917136819895306 14.159621110287834 15.95613336563111
  endloop
endfacet
facet normal 2.3361435846780706e-14 0.517336078096874 0.8557823217964633
  outer loop
    vertex 12.917136819895306 12.78287397894014 16.385144710540786
    vertex 11.917136819895308 12.782873978940186 16.385144710540786
    vertex 11.917136819895308 12.36950575384252 16.63503336906434
  endloop
endfacet
facet normal -2.2495307662040063e-17 -0.6167168710887764 0.7871850487112096
  outer loop
    vertex 12.917136819895353 17.294257035580742 16.932925939559947
    vertex 11.917136819895354 17.294257035580742 16.932925939559947
    vertex 11.917136819895308 16.914023270932304 16.63503336906434
  endloop
endfacet
facet normal 1.6274647872125274e-14 -0.18025445449956395 0.9836200138432852
  outer loop
    vertex 12.917136819895353 15.599028458920658 16.043201446533207
    vertex 11.917136819895354 15.123911729184286 15.95613336563111
    vertex 12.917136819895353 15.123911729184377 15.95613336563111
  endloop
endfacet
facet normal -1.9419027393254402e-17 0.41041376923606854 0.9118994122278199
  outer loop
    vertex 12.917136819895353 13.223345628110083 16.18690395355225
    vertex 11.917136819895264 13.223345628110083 16.18690395355225
    vertex 11.917136819895308 12.782873978940186 16.385144710540786
  endloop
endfacet
facet normal 5.441876030445389e-15 -0.06037804501190128 0.9981755815890012
  outer loop
    vertex 12.917136819895353 15.123911729184377 15.95613336563111
    vertex 11.917136819895354 15.123911729184286 15.95613336563111
    vertex 11.917136819895308 14.641764512387434 15.926969051361088
  endloop
endfacet
facet normal 1.8547921139156124e-17 -0.9547201749645309 0.2975052730888912
  outer loop
    vertex 11.917136819895308 18.525534501401122 18.969706177711494
    vertex 11.917136819895308 18.381831040707805 18.508549332618728
    vertex 12.917136819895306 18.525534501401122 18.969706177711494
  endloop
endfacet
facet normal -8.676820582829008e-16 8.676820582829008e-16 1.0
  outer loop
    vertex 5.417136819895344 27.641764512387432 33.92696857452391
    vertex 4.417136819895346 0.641766419736131 33.92696857452393
    vertex 5.4171368198952985 1.6417664197360842 33.92696857452393
  endloop
endfacet
facet normal 0.0 -1.0 0.0
  outer loop
    vertex 12.917136819895306 18.64176451238743 33.92696857452393
    vertex 11.917136819895308 18.64176451238743 19.92696882784367
    vertex 12.917136819895306 18.64176451238743 19.92696882784367
  endloop
endfacet
facet normal 0.0 0.0 1.0
  outer loop
    vertex 11.917136819895354 27.641764512387343 33.92696857452391
    vertex 4.4171368198953 28.641764512387407 33.92696857452391
    vertex 5.417136819895344 27.641764512387432 33.92696857452391
  endloop
endfacet
facet normal 1.3447144411950624e-14 -0.29750235190644225 0.9547210852443426
  outer loop
    vertex 12.917136819895353 15.599028458920658 16.043201446533207
    vertex 12.917136819895306 16.060187211362038 16.18690395355225
    vertex 11.917136819895308 15.599028458920614 16.043201446533207
  endloop
endfacet
facet normal 4.3068272885122006e-14 0.9547201749644777 0.2975052730890615
  outer loop
    vertex 11.917136819895308 10.757998338070998 18.969706177711494
    vertex 12.917136819895306 10.901701798764362 18.508549332618728
    vertex 11.917136819895354 10.901701798764407 18.508549332618728
  endloop
endfacet
facet normal -1.1541589142277928e-16 4.480295602172853e-16 1.0
  outer loop
    vertex 7.015278013285254 2.0534599927340635 7.926968574523935
    vertex 7.01527801328521 27.230070939389183 7.926968574523924
    vertex 5.4171368198952985 1.6417664197360842 7.926968574523935
  endloop
endfacet
facet normal 2.3299359400775088e-14 0.517336078096874 0.8557823217964631
  outer loop
    vertex 12.917136819895306 12.78287397894014 16.385144710540786
    vertex 11.917136819895308 12.36950575384252 16.63503336906434
    vertex 12.917136819895306 12.369505753842473 16.63503336906434
  endloop
endfacet
facet normal 0.0 0.0 1.0
  outer loop
    vertex 11.917136819895354 27.641764512387343 7.926968574523924
    vertex 5.417136819895344 27.641764512387432 7.926968574523924
    vertex 10.318995626505398 27.230070939389453 7.926968574523924
  endloop
endfacet
facet normal 8.128322471529344e-15 -0.18025445449954744 0.9836200138432885
  outer loop
    vertex 12.917136819895353 15.599028458920658 16.043201446533207
    vertex 11.917136819895308 15.599028458920614 16.043201446533207
    vertex 11.917136819895354 15.123911729184286 15.95613336563111
  endloop
endfacet
facet normal -2.2175568429970703e-18 0.9981752211123063 0.06038400415175051
  outer loop
    vertex 12.917136819895306 10.641764512387441 19.92696882784367
    vertex 12.917136819895262 10.670931687680403 19.444822072982795
    vertex 11.917136819895264 10.641764512387441 19.92696882784367
  endloop
endfacet
facet normal 1.850633310577131e-14 0.41041376923603345 0.9118994122278358
  outer loop
    vertex 12.917136819895353 13.223345628110083 16.18690395355225
    vertex 11.917136819895308 12.782873978940186 16.385144710540786
    vertex 12.917136819895306 12.78287397894014 16.385144710540786
  endloop
endfacet
facet normal 1.0 -1.735364116565799e-15 0.0
  outer loop
    vertex 5.417136819895344 27.641764512387432 7.926968574523924
    vertex 5.4171368198952985 1.6417664197360842 33.92696857452393
    vertex 5.4171368198952985 1.6417664197360842 7.926968574523935
  endloop
endfacet
facet normal -1.3882911914081933e-14 -1.0 -2.6944689041129686e-31
  outer loop
    vertex 5.417136819895344 27.641764512387432 33.92696857452391
    vertex 11.917136819895354 27.641764512387343 7.926968574523924
    vertex 11.917136819895354 27.641764512387343 33.92696857452391
  endloop
endfacet
facet normal 4.435115800876561e-18 -0.9981756970917703 0.060376135478832804
  outer loop
    vertex 11.917136819895308 18.64176451238743 19.92696882784367
    vertex 11.917136819895308 18.61260115179172 19.444822072982785
    vertex 12.917136819895306 18.61260115179172 19.444822072982785
  endloop
endfacet
facet normal -1.0 6.808947163000206e-14 9.547090175439184e-14
  outer loop
    vertex 11.917136819895354 27.641764512387343 7.926968574523924
    vertex 11.917136819895308 15.599028458920614 16.043201446533207
    vertex 11.917136819895354 16.060187211362038 16.18690395355225
  endloop
endfacet
facet normal -1.0 3.593082276399606e-15 -1.119658882154448e-15
  outer loop
    vertex 11.917136819895354 27.641764512387343 7.926968574523924
    vertex 11.917136819895308 18.381831040707805 18.508549332618728
    vertex 11.917136819895308 18.525534501401122 18.969706177711494
  endloop
endfacet
facet normal 4.11293182987123e-14 0.9119017999259332 0.4104084639622379
  outer loop
    vertex 12.917136819895306 10.901701798764362 18.508549332618728
    vertex 12.917136819895306 11.09994017156716 18.068076133728038
    vertex 11.917136819895354 10.901701798764407 18.508549332618728
  endloop
endfacet
facet normal -1.0 8.551575856807472e-14 1.3332316676134448e-13
  outer loop
    vertex 11.917136819895354 27.641764512387343 7.926968574523924
    vertex 11.917136819895308 14.641764512387434 15.926969051361088
    vertex 11.917136819895354 15.123911729184286 15.95613336563111
  endloop
endfacet
facet normal 0.0 -0.5173395745263709 0.8557802081310796
  outer loop
    vertex 12.917136819895306 16.914023270932304 16.63503336906434
    vertex 11.917136819895308 16.914023270932304 16.63503336906434
    vertex 11.917136819895354 16.50065886053189 16.385144710540775
  endloop
endfacet
facet normal -1.0 7.386219286452848e-14 -1.1515471676801706e-13
  outer loop
    vertex 11.917136819895354 14.15962111028779 15.95613336563111
    vertex 11.917136819895354 1.6417664197359938 7.926968574523935
    vertex 11.917136819895308 13.684504380551463 16.043201446533207
  endloop
endfacet
facet normal 0.0 0.0 1.0
  outer loop
    vertex 12.917136819895353 0.6417664197360408 33.92696857452393
    vertex 12.917136819895306 10.641764512387441 33.92696857452393
    vertex 11.917136819895354 1.6417664197359938 33.92696857452393
  endloop
endfacet
facet normal 4.666154121375985e-14 -0.5173395745264536 0.8557802081310294
  outer loop
    vertex 12.917136819895306 16.914023270932304 16.63503336906434
    vertex 11.917136819895354 16.50065886053189 16.385144710540775
    vertex 12.917136819895306 16.50065886053198 16.385144710540775
  endloop
endfacet
facet normal -3.8837757308772077e-17 -0.9118988442616426 0.41041503119924905
  outer loop
    vertex 12.917136819895306 18.381831040707713 18.508549332618728
    vertex 11.917136819895308 18.18358885320771 18.068076133728038
    vertex 12.917136819895353 18.18358885320771 18.068076133728038
  endloop
endfacet
facet normal -1.0 -4.050274887374597e-15 -7.422270463156195e-16
  outer loop
    vertex 11.917136819895308 10.757998338070998 18.969706177711494
    vertex 11.917136819895354 1.6417664197359938 7.926968574523935
    vertex 11.917136819895308 10.670931687680403 19.444822072982795
  endloop
endfacet
facet normal 0.0 0.0 1.0
  outer loop
    vertex 12.917136819895353 0.6417664197360408 33.92696857452393
    vertex 11.917136819895354 1.6417664197359938 33.92696857452393
    vertex 4.417136819895346 0.641766419736131 33.92696857452393
  endloop
endfacet
facet normal 1.117608157146787e-16 4.3384102914144947e-16 1.0
  outer loop
    vertex 7.01527801328521 27.230070939389183 7.926968574523924
    vertex 5.417136819895344 27.641764512387432 7.926968574523924
    vertex 5.4171368198952985 1.6417664197360842 7.926968574523935
  endloop
endfacet
facet normal 0.0 0.29750235190641583 0.954721085244351
  outer loop
    vertex 12.917136819895353 13.223345628110083 16.18690395355225
    vertex 12.917136819895306 13.684504380551507 16.043201446533207
    vertex 11.917136819895264 13.223345628110083 16.18690395355225
  endloop
endfacet
facet normal 0.0 -0.7871824006185129 0.6167202511321281
  outer loop
    vertex 11.917136819895308 17.933703294125667 17.654709815979007
    vertex 11.917136819895308 17.635809769955728 17.274478197097785
    vertex 12.917136819895353 17.933703294125667 17.654709815979007
  endloop
endfacet
facet normal -1.9419027393256195e-17 -0.4104137692360139 0.9118994122278443
  outer loop
    vertex 12.917136819895306 16.50065886053198 16.385144710540775
    vertex 11.917136819895354 16.060187211362038 16.18690395355225
    vertex 12.917136819895306 16.060187211362038 16.18690395355225
  endloop
endfacet
facet normal -3.1879730057477955e-14 0.7071062875948853 0.7071072747778653
  outer loop
    vertex 12.917136819895262 11.98927580389138 16.932925939559947
    vertex 11.917136819895308 11.989275803891333 16.932925939559947
    vertex 11.917136819895354 11.647723069516303 17.274478197097785
  endloop
endfacet
facet normal -1.0 4.6391338925743965e-15 -2.8060488470945925e-16
  outer loop
    vertex 11.917136819895354 27.641764512387343 7.926968574523924
    vertex 11.917136819895308 18.61260115179172 19.444822072982785
    vertex 11.917136819895308 18.64176451238743 19.92696882784367
  endloop
endfacet
facet normal 1.0 -1.2812247406214795e-15 2.8467565551693775e-15
  outer loop
    vertex 12.917136819895353 28.6417645123875 5.999999999999997
    vertex 12.917136819895306 16.50065886053198 16.385144710540775
    vertex 12.917136819895306 16.060187211362038 16.18690395355225
  endloop
endfacet
facet normal 1.3882911914081839e-14 1.0 0.0
  outer loop
    vertex 11.917136819895354 1.6417664197359938 33.92696857452393
    vertex 5.4171368198952985 1.6417664197360842 7.926968574523935
    vertex 5.4171368198952985 1.6417664197360842 33.92696857452393
  endloop
endfacet
facet normal -1.0 4.050275580856289e-15 -7.422271733983021e-16
  outer loop
    vertex 11.917136819895354 27.641764512387343 7.926968574523924
    vertex 11.917136819895308 18.525534501401122 18.969706177711494
    vertex 11.917136819895308 18.61260115179172 19.444822072982785
  endloop
endfacet
facet normal -1.0 0.0 0.0
  outer loop
    vertex 11.917136819895354 27.641764512387343 7.926968574523924
    vertex 11.917136819895354 16.060187211362038 16.18690395355225
    vertex 11.917136819895354 16.50065886053189 16.385144710540775
  endloop
endfacet
facet normal 1.0 4.5119472326622596e-15 9.815913075509201e-32
  outer loop
    vertex 12.917136819895306 10.641764512387441 33.92696857452393
    vertex 12.917136819895353 0.6417664197360408 28.963484764099118
    vertex 12.917136819895306 10.641764512387441 19.92696882784367
  endloop
endfacet
facet normal -1.0 -7.38621953654477e-14 -1.1515470312091558e-13
  outer loop
    vertex 11.917136819895354 27.641764512387343 7.926968574523924
    vertex 11.917136819895354 15.123911729184286 15.95613336563111
    vertex 11.917136819895308 15.599028458920614 16.043201446533207
  endloop
endfacet
facet normal -1.0 3.2176826242503788e-15 -1.4481708392674958e-15
  outer loop
    vertex 11.917136819895354 27.641764512387343 7.926968574523924
    vertex 11.917136819895308 18.18358885320771 18.068076133728038
    vertex 11.917136819895308 18.381831040707805 18.508549332618728
  endloop
endfacet
facet normal 1.0 4.511947232662259e-15 -3.3337015480156604e-30
  outer loop
    vertex 12.917136819895306 10.641764512387441 19.92696882784367
    vertex 12.917136819895353 0.6417664197360408 28.963484764099118
    vertex 12.917136819895353 0.6417664197360408 24.158854007720954
  endloop
endfacet
facet normal 1.1541589142282018e-16 4.480295602172817e-16 1.0
  outer loop
    vertex 11.917136819895354 1.6417664197359938 7.926968574523935
    vertex 10.318995626505398 27.230070939389453 7.926968574523924
    vertex 10.318995626505442 2.0534599927341084 7.926968574523935
  endloop
endfacet
facet normal -1.0 5.013273746751866e-15 -7.271043948915653e-31
  outer loop
    vertex 11.917136819895354 27.641764512387343 33.92696857452391
    vertex 11.917136819895308 18.64176451238743 19.92696882784367
    vertex 11.917136819895308 18.64176451238743 33.92696857452393
  endloop
endfacet
facet normal 1.0 -1.7353641165657993e-15 -2.694469299443147e-31
  outer loop
    vertex 5.417136819895344 27.641764512387432 33.92696857452391
    vertex 5.4171368198952985 1.6417664197360842 33.92696857452393
    vertex 5.417136819895344 27.641764512387432 7.926968574523924
  endloop
endfacet
facet normal -1.0 -2.8943689995096298e-15 -1.749712121472112e-15
  outer loop
    vertex 11.917136819895308 11.349829545346452 17.654709815979007
    vertex 11.917136819895354 1.6417664197359938 7.926968574523935
    vertex 11.917136819895308 11.099940171567116 18.068076133728038
  endloop
endfacet
facet normal -1.0 6.400750110126957e-14 -6.851624733644483e-14
  outer loop
    vertex 11.917136819895354 11.647723069516303 17.274478197097785
    vertex 11.917136819895354 1.6417664197359938 7.926968574523935
    vertex 11.917136819895308 11.349829545346452 17.654709815979007
  endloop
endfacet
facet normal -1.0 6.244898417769307e-14 7.175154228537398e-14
  outer loop
    vertex 11.917136819895354 27.641764512387343 7.926968574523924
    vertex 11.917136819895308 16.914023270932304 16.63503336906434
    vertex 11.917136819895354 17.294257035580742 16.932925939559947
  endloop
endfacet
facet normal -1.0 -1.792118240869126e-15 -2.58510158284633e-31
  outer loop
    vertex 10.318995626505398 27.230070939389453 7.926968574523924
    vertex 10.318995626505442 2.0534599927341084 8.459899447643692e-15
    vertex 10.318995626505442 2.0534599927341084 5.999999999999997
  endloop
endfacet
facet normal -1.0 -1.792118240869126e-15 -2.58510158284633e-31
  outer loop
    vertex 10.318995626505442 2.0534599927341084 8.459899447643692e-15
    vertex 10.318995626505398 27.230070939389453 7.926968574523924
    vertex 10.318995626505398 27.230070939389453 2.8199664825478975e-15
  endloop
endfacet
facet normal -1.0 -1.792118240869126e-15 -2.58510158284633e-31
  outer loop
    vertex 10.318995626505398 27.230070939389453 2.8199664825478975e-15
    vertex 10.318995626505398 27.230070939389453 7.926968574523924
    vertex 10.318995626505398 27.230070939389453 5.999999999999997
  endloop
endfacet
facet normal -1.0616344404886198e-14 -1.0 2.161750254284575e-30
  outer loop
    vertex 4.417136819895346 0.641766419736131 33.92696857452393
    vertex 4.417136819895346 0.641766419736131 28.963484764099118
    vertex 12.917136819895353 0.6417664197360408 33.92696857452393
  endloop
endfacet
facet normal -1.0 -7.729956445880168e-14 6.764480544818187e-14
  outer loop
    vertex 11.917136819895308 11.099940171567116 18.068076133728038
    vertex 11.917136819895354 1.6417664197359938 7.926968574523935
    vertex 11.917136819895354 10.901701798764407 18.508549332618728
  endloop
endfacet
facet normal -1.0 -1.7952490818451822e-15 -2.969718317570389e-15
  outer loop
    vertex 11.917136819895308 12.782873978940186 16.385144710540786
    vertex 11.917136819895354 1.6417664197359938 7.926968574523935
    vertex 11.917136819895308 12.36950575384252 16.63503336906434
  endloop
endfacet
facet normal -1.0 -1.0026549618406399e-14 0.0
  outer loop
    vertex 11.917136819895264 10.641764512387441 19.92696882784367
    vertex 11.917136819895354 1.6417664197359938 33.92696857452393
    vertex 11.917136819895264 10.641764512387441 33.92696857452393
  endloop
endfacet
facet normal -1.0 -6.147204279449046e-14 -7.062907325100612e-14
  outer loop
    vertex 11.917136819895354 27.641764512387343 7.926968574523924
    vertex 11.917136819895354 17.294257035580742 16.932925939559947
    vertex 11.917136819895308 17.635809769955728 17.274478197097785
  endloop
endfacet
facet normal 0.0 0.0 1.0
  outer loop
    vertex 11.917136819895354 1.6417664197359938 7.926968574523935
    vertex 7.015278013285254 2.0534599927340635 7.926968574523935
    vertex 5.4171368198952985 1.6417664197360842 7.926968574523935
  endloop
endfacet
facet normal 1.0 1.792118240869142e-15 -0.0
  outer loop
    vertex 7.01527801328521 27.230070939389183 2.8199664825478975e-15
    vertex 7.015278013285254 2.0534599927340635 5.999999999999997
    vertex 7.015278013285254 2.0534599927340635 8.459899447643692e-15
  endloop
endfacet
facet normal 1.0 1.792118240869142e-15 -0.0
  outer loop
    vertex 7.015278013285254 2.0534599927340635 5.999999999999997
    vertex 7.01527801328521 27.230070939389183 2.8199664825478975e-15
    vertex 7.015278013285254 2.0534599927340635 7.926968574523935
  endloop
endfacet
facet normal 1.0 1.792118240869142e-15 -0.0
  outer loop
    vertex 7.015278013285254 2.0534599927340635 7.926968574523935
    vertex 7.01527801328521 27.230070939389183 2.8199664825478975e-15
    vertex 7.01527801328521 27.230070939389183 5.999999999999997
  endloop
endfacet
facet normal -1.3882911914081932e-14 -1.0 8.083406712338903e-31
  outer loop
    vertex 5.417136819895344 27.641764512387432 33.92696857452391
    vertex 5.417136819895344 27.641764512387432 7.926968574523924
    vertex 11.917136819895354 27.641764512387343 7.926968574523924
  endloop
endfacet
facet normal -1.0 -6.58171844380943e-14 8.135995943826374e-14
  outer loop
    vertex 11.917136819895264 13.223345628110083 16.18690395355225
    vertex 11.917136819895354 1.6417664197359938 7.926968574523935
    vertex 11.917136819895308 12.782873978940186 16.385144710540786
  endloop
endfacet
facet normal -2.255973186038668e-15 2.2559731860383114e-15 1.0
  outer loop
    vertex 12.917136819895353 28.6417645123875 33.92696857452391
    vertex 11.917136819895354 27.641764512387343 33.92696857452391
    vertex 12.917136819895306 18.64176451238743 33.92696857452393
  endloop
endfacet
facet normal -1.0 -2.4563290458277327e-30 -5.639932628929614e-15
  outer loop
    vertex 11.917136819895354 27.641764512387343 7.926968574523924
    vertex 11.917136819895354 1.6417664197359938 7.926968574523935
    vertex 11.917136819895308 14.641764512387434 15.926969051361088
  endloop
endfacet
facet normal -1.0 -6.380337276988062e-14 6.829774002087741e-14
  outer loop
    vertex 11.917136819895308 11.989275803891333 16.932925939559947
    vertex 11.917136819895354 1.6417664197359938 7.926968574523935
    vertex 11.917136819895354 11.647723069516303 17.274478197097785
  endloop
endfacet
facet normal -1.0 2.6036537458304498e-15 -2.0398398017132107e-15
  outer loop
    vertex 11.917136819895354 27.641764512387343 7.926968574523924
    vertex 11.917136819895308 17.635809769955728 17.274478197097785
    vertex 11.917136819895308 17.933703294125667 17.654709815979007
  endloop
endfacet
facet normal -1.0 8.244588561959196e-14 -7.214834820592957e-14
  outer loop
    vertex 11.917136819895354 10.901701798764407 18.508549332618728
    vertex 11.917136819895354 1.6417664197359938 7.926968574523935
    vertex 11.917136819895308 10.757998338070998 18.969706177711494
  endloop
endfacet
facet normal 1.0 4.511947232662259e-15 1.1528426370021106e-31
  outer loop
    vertex 12.917136819895306 10.641764512387441 19.92696882784367
    vertex 12.917136819895353 0.6417664197360408 24.158854007720954
    vertex 12.917136819895353 0.6417664197360408 15.76811408996583
  endloop
endfacet
facet normal -1.1176081571457372e-16 4.338410291414498e-16 1.0
  outer loop
    vertex 11.917136819895354 27.641764512387343 7.926968574523924
    vertex 10.318995626505398 27.230070939389453 7.926968574523924
    vertex 11.917136819895354 1.6417664197359938 7.926968574523935
  endloop
endfacet
facet normal -1.0 1.0618267351005558e-13 -8.715689703550815e-14
  outer loop
    vertex 11.917136819895308 10.670931687680403 19.444822072982795
    vertex 11.917136819895354 1.6417664197359938 7.926968574523935
    vertex 11.917136819895264 10.641764512387441 19.92696882784367
  endloop
endfacet
facet normal 1.3882911914081839e-14 1.0 -8.083406712338789e-31
  outer loop
    vertex 11.917136819895354 1.6417664197359938 33.92696857452393
    vertex 11.917136819895354 1.6417664197359938 7.926968574523935
    vertex 5.4171368198952985 1.6417664197360842 7.926968574523935
  endloop
endfacet
facet normal 1.0 -0.0 -0.0
  outer loop
    vertex 12.917136819895353 28.6417645123875 5.999999999999997
    vertex 12.917136819895353 18.18358885320771 18.068076133728038
    vertex 12.917136819895353 17.933703294125667 17.654709815979007
  endloop
endfacet
facet normal 1.0 4.511947232662259e-15 0.0
  outer loop
    vertex 12.917136819895306 10.641764512387441 33.92696857452393
    vertex 12.917136819895353 0.6417664197360408 33.92696857452393
    vertex 12.917136819895353 0.6417664197360408 28.963484764099118
  endloop
endfacet
facet normal -1.0 -1.792118240869126e-15 0.0
  outer loop
    vertex 10.318995626505398 27.230070939389453 7.926968574523924
    vertex 10.318995626505442 2.0534599927341084 5.999999999999997
    vertex 10.318995626505442 2.0534599927341084 7.926968574523935
  endloop
endfacet
facet normal 8.194307565552672e-14 -1.0 1.8766199407880508e-30
  outer loop
    vertex 10.318995626505398 27.230070939389453 5.999999999999997
    vertex 7.01527801328521 27.230070939389183 2.8199664825478975e-15
    vertex 10.318995626505398 27.230070939389453 2.8199664825478975e-15
  endloop
endfacet
facet normal 8.194307565552672e-14 -1.0 1.8766199407880508e-30
  outer loop
    vertex 7.01527801328521 27.230070939389183 2.8199664825478975e-15
    vertex 10.318995626505398 27.230070939389453 5.999999999999997
    vertex 7.01527801328521 27.230070939389183 5.999999999999997
  endloop
endfacet
facet normal 8.194307565552672e-14 -1.0 1.8766199407880508e-30
  outer loop
    vertex 7.01527801328521 27.230070939389183 5.999999999999997
    vertex 10.318995626505398 27.230070939389453 5.999999999999997
    vertex 7.01527801328521 27.230070939389183 7.926968574523924
  endloop
endfacet
facet normal 8.194307565552672e-14 -1.0 0.0
  outer loop
    vertex 7.01527801328521 27.230070939389183 7.926968574523924
    vertex 10.318995626505398 27.230070939389453 5.999999999999997
    vertex 10.318995626505398 27.230070939389453 7.926968574523924
  endloop
endfacet
facet normal 0.0 0.0 1.0
  outer loop
    vertex 10.318995626505398 27.230070939389453 7.926968574523924
    vertex 5.417136819895344 27.641764512387432 7.926968574523924
    vertex 7.01527801328521 27.230070939389183 7.926968574523924
  endloop
endfacet
facet normal 1.0 6.48215247946467e-14 6.727958657468748e-14
  outer loop
    vertex 12.917136819895353 28.6417645123875 5.999999999999997
    vertex 12.917136819895306 17.635809769955728 17.274478197097785
    vertex 12.917136819895353 17.294257035580742 16.932925939559947
  endloop
endfacet
facet normal -1.0 -1.0026549618406402e-14 -3.5136222052785213e-32
  outer loop
    vertex 11.917136819895264 10.641764512387441 19.92696882784367
    vertex 11.917136819895354 1.6417664197359938 7.926968574523935
    vertex 11.917136819895354 1.6417664197359938 33.92696857452393
  endloop
endfacet
facet normal 1.0 -8.647803094687549e-14 -1.1741478829086117e-13
  outer loop
    vertex 12.917136819895353 28.6417645123875 5.999999999999997
    vertex 12.917136819895353 15.123911729184377 15.95613336563111
    vertex 12.917136819895306 14.64176451238748 15.926969051361088
  endloop
endfacet
facet normal -1.3657179275921124e-14 1.0 0.0
  outer loop
    vertex 10.318995626505442 2.0534599927341084 7.926968574523935
    vertex 7.015278013285254 2.0534599927340635 5.999999999999997
    vertex 7.015278013285254 2.0534599927340635 7.926968574523935
  endloop
endfacet
facet normal 1.0 -4.16139336738774e-15 2.5170804144272405e-16
  outer loop
    vertex 12.917136819895353 28.6417645123875 5.999999999999997
    vertex 12.917136819895306 18.64176451238743 19.92696882784367
    vertex 12.917136819895306 18.61260115179172 19.444822072982785
  endloop
endfacet
facet normal -1.0616344404886193e-14 -1.0 0.0
  outer loop
    vertex 12.917136819895353 0.6417664197360408 15.76811408996583
    vertex 4.417136819895346 0.641766419736131 10.963483810424814
    vertex 12.917136819895353 0.6417664197360408 10.963483810424814
  endloop
endfacet
facet normal -1.0616344404886193e-14 -1.0 0.0
  outer loop
    vertex 4.417136819895346 0.641766419736131 10.963483810424814
    vertex 12.917136819895353 0.6417664197360408 15.76811408996583
    vertex 4.417136819895346 0.641766419736131 15.76811408996583
  endloop
endfacet
facet normal -1.010738232664151e-14 -1.0 6.854528257606523e-16
  outer loop
    vertex 12.917136819895353 0.6417664197360408 10.963483810424814
    vertex 7.015278013285254 0.641766419736086 6.000000000000009
    vertex 12.917136819895306 0.6417664197360408 6.000000000000009
  endloop
endfacet
facet normal -1.010738232664151e-14 -1.0 6.854528257606523e-16
  outer loop
    vertex 7.015278013285254 0.641766419736086 6.000000000000009
    vertex 12.917136819895353 0.6417664197360408 10.963483810424814
    vertex 4.417136819895346 0.641766419736131 6.000000000000009
  endloop
endfacet
facet normal 5.90388782703483e-17 -2.6915700081952725e-16 -1.0
  outer loop
    vertex 12.917136819895353 28.6417645123875 2.8199664825478975e-15
    vertex 7.01527801328521 27.230070939389183 2.8199664825478975e-15
    vertex 7.01527801328521 28.641764512387407 2.8199664825478975e-15
  endloop
endfacet
facet normal 5.90388782703483e-17 -2.6915700081952725e-16 -1.0
  outer loop
    vertex 7.01527801328521 27.230070939389183 2.8199664825478975e-15
    vertex 12.917136819895353 28.6417645123875 2.8199664825478975e-15
    vertex 10.318995626505398 27.230070939389453 2.8199664825478975e-15
  endloop
endfacet
facet normal 5.90388782703483e-17 -2.6915700081952725e-16 -1.0
  outer loop
    vertex 10.318995626505398 27.230070939389453 2.8199664825478975e-15
    vertex 12.917136819895353 28.6417645123875 2.8199664825478975e-15
    vertex 10.318995626505442 2.0534599927341084 8.459899447643692e-15
  endloop
endfacet
facet normal 5.90388782703483e-17 -2.6915700081952725e-16 -1.0
  outer loop
    vertex 10.318995626505442 2.0534599927341084 8.459899447643692e-15
    vertex 12.917136819895353 28.6417645123875 2.8199664825478975e-15
    vertex 12.917136819895306 0.6417664197360408 1.127986593019159e-14
  endloop
endfacet
facet normal 5.90388782703483e-17 -2.6915700081952725e-16 -1.0
  outer loop
    vertex 12.917136819895306 0.6417664197360408 1.127986593019159e-14
    vertex 12.917136819895353 28.6417645123875 2.8199664825478975e-15
    vertex 12.917136819895353 27.641766419736037 2.8199664825478975e-15
  endloop
endfacet
facet normal 5.90388782703483e-17 -2.6915700081952725e-16 -1.0
  outer loop
    vertex 10.318995626505442 2.0534599927341084 8.459899447643692e-15
    vertex 7.015278013285254 0.641766419736086 1.127986593019159e-14
    vertex 7.015278013285254 2.0534599927340635 8.459899447643692e-15
  endloop
endfacet
facet normal 5.90388782703483e-17 -2.6915700081952725e-16 -1.0
  outer loop
    vertex 7.015278013285254 0.641766419736086 1.127986593019159e-14
    vertex 10.318995626505442 2.0534599927341084 8.459899447643692e-15
    vertex 12.917136819895306 0.6417664197360408 1.127986593019159e-14
  endloop
endfacet
facet normal 7.644958173217019e-15 1.0 -0.0
  outer loop
    vertex 7.015278013285254 0.641766419736086 6.000000000000009
    vertex 12.917136819895306 0.6417664197360408 1.127986593019159e-14
    vertex 7.015278013285254 0.641766419736086 1.127986593019159e-14
  endloop
endfacet
facet normal 7.644958173217019e-15 1.0 -0.0
  outer loop
    vertex 12.917136819895306 0.6417664197360408 1.127986593019159e-14
    vertex 7.015278013285254 0.641766419736086 6.000000000000009
    vertex 12.917136819895306 0.6417664197360408 6.000000000000009
  endloop
endfacet
facet normal 1.5289916346433804e-14 -1.0 0.0
  outer loop
    vertex 12.917136819895353 28.6417645123875 5.999999999999997
    vertex 7.01527801328521 28.641764512387407 2.8199664825478975e-15
    vertex 12.917136819895353 28.6417645123875 2.8199664825478975e-15
  endloop
endfacet
facet normal 1.5289916346433804e-14 -1.0 0.0
  outer loop
    vertex 7.01527801328521 28.641764512387407 2.8199664825478975e-15
    vertex 12.917136819895353 28.6417645123875 5.999999999999997
    vertex 7.01527801328521 28.641764512387407 5.999999999999997
  endloop
endfacet
facet normal 1.0 -0.0 -0.0
  outer loop
    vertex 12.917136819895306 0.6417664197360408 6.000000000000009
    vertex 12.917136819895306 -9.358233580263958 1.127986593019159e-14
    vertex 12.917136819895306 0.6417664197360408 1.127986593019159e-14
  endloop
endfacet
facet normal -1.0 0.0 0.0
  outer loop
    vertex 4.417136819895346 0.641766419736131 6.000000000000009
    vertex 4.417136819895346 0.6417664197360408 1.127986593019159e-14
    vertex 4.417136819895346 -9.358233580263958 1.127986593019159e-14
  endloop
endfacet
facet normal -2.6818725351370747e-15 -0.5144957554275249 0.8574929257125453
  outer loop
    vertex 12.917136819895306 -9.358233580263958 1.127986593019159e-14
    vertex 4.417136819895346 0.641766419736131 6.000000000000009
    vertex 4.417136819895346 -9.358233580263958 1.127986593019159e-14
  endloop
endfacet
facet normal -2.6818725351370747e-15 -0.5144957554275249 0.8574929257125453
  outer loop
    vertex 4.417136819895346 0.641766419736131 6.000000000000009
    vertex 12.917136819895306 -9.358233580263958 1.127986593019159e-14
    vertex 7.015278013285254 0.641766419736086 6.000000000000009
  endloop
endfacet
facet normal -2.6818725351370747e-15 -0.5144957554275249 0.8574929257125453
  outer loop
    vertex 7.015278013285254 0.641766419736086 6.000000000000009
    vertex 12.917136819895306 -9.358233580263958 1.127986593019159e-14
    vertex 12.917136819895306 0.6417664197360408 6.000000000000009
  endloop
endfacet
facet normal 0.0 0.0 -1.0
  outer loop
    vertex 7.015278013285254 0.641766419736086 1.127986593019159e-14
    vertex 4.417136819895346 -9.358233580263958 1.127986593019159e-14
    vertex 4.417136819895346 0.6417664197360408 1.127986593019159e-14
  endloop
endfacet
facet normal 0.0 0.0 -1.0
  outer loop
    vertex 4.417136819895346 -9.358233580263958 1.127986593019159e-14
    vertex 7.015278013285254 0.641766419736086 1.127986593019159e-14
    vertex 12.917136819895306 -9.358233580263958 1.127986593019159e-14
  endloop
endfacet
facet normal 0.0 0.0 -1.0
  outer loop
    vertex 12.917136819895306 -9.358233580263958 1.127986593019159e-14
    vertex 7.015278013285254 0.641766419736086 1.127986593019159e-14
    vertex 12.917136819895306 0.6417664197360408 1.127986593019159e-14
  endloop
endfacet
facet normal -0.0 1.0 -7.519910620127729e-15
  outer loop
    vertex 4.417136819895346 0.641766419736131 6.000000000000009
    vertex 7.015278013285254 0.641766419736086 1.127986593019159e-14
    vertex 4.417136819895346 0.6417664197360408 1.127986593019159e-14
  endloop
endfacet
facet normal -0.0 1.0 -7.519910620127729e-15
  outer loop
    vertex 7.015278013285254 0.641766419736086 1.127986593019159e-14
    vertex 4.417136819895346 0.641766419736131 6.000000000000009
    vertex 7.015278013285254 0.641766419736086 6.000000000000009
  endloop
endfacet
facet normal 1.0 -0.0 -0.0
  outer loop
    vertex 12.917136819895353 38.641764512387496 2.8199664825478975e-15
    vertex 12.917136819895353 28.6417645123875 5.999999999999997
    vertex 12.917136819895353 28.6417645123875 2.8199664825478975e-15
  endloop
endfacet
facet normal -1.0 7.049916206369684e-17 1.1749860343949482e-16
  outer loop
    vertex 4.417136819895291 38.641764512387496 2.8199664825478975e-15
    vertex 4.417136819895291 28.641764512387407 4.229949723821846e-15
    vertex 4.417136819895291 28.6417645123875 5.999999999999997
  endloop
endfacet
facet normal -1.7366055330463716e-14 -1.0 7.519910620127733e-15
  outer loop
    vertex 7.01527801328521 28.641764512387407 5.999999999999997
    vertex 4.417136819895291 28.641764512387407 4.229949723821846e-15
    vertex 7.01527801328521 28.641764512387407 2.8199664825478975e-15
  endloop
endfacet
facet normal -1.7366055330463716e-14 -1.0 7.519910620127733e-15
  outer loop
    vertex 4.417136819895291 28.641764512387407 4.229949723821846e-15
    vertex 7.01527801328521 28.641764512387407 5.999999999999997
    vertex 4.417136819895291 28.6417645123875 5.999999999999997
  endloop
endfacet
facet normal -7.042160563636267e-17 -4.3121889727596466e-17 -1.0
  outer loop
    vertex 4.417136819895291 38.641764512387496 2.8199664825478975e-15
    vertex 7.01527801328521 28.641764512387407 2.8199664825478975e-15
    vertex 4.417136819895291 28.641764512387407 4.229949723821846e-15
  endloop
endfacet
facet normal -7.042160563636267e-17 -4.3121889727596466e-17 -1.0
  outer loop
    vertex 7.01527801328521 28.641764512387407 2.8199664825478975e-15
    vertex 4.417136819895291 38.641764512387496 2.8199664825478975e-15
    vertex 12.917136819895353 38.641764512387496 2.8199664825478975e-15
  endloop
endfacet
facet normal -7.042160563636267e-17 -4.3121889727596466e-17 -1.0
  outer loop
    vertex 7.01527801328521 28.641764512387407 2.8199664825478975e-15
    vertex 12.917136819895353 38.641764512387496 2.8199664825478975e-15
    vertex 12.917136819895353 28.6417645123875 2.8199664825478975e-15
  endloop
endfacet
facet normal -6.530533770625853e-16 0.514495755427525 0.8574929257125451
  outer loop
    vertex 7.01527801328521 28.641764512387407 5.999999999999997
    vertex 4.417136819895291 38.641764512387496 2.8199664825478975e-15
    vertex 4.417136819895291 28.6417645123875 5.999999999999997
  endloop
endfacet
facet normal -6.530533770625853e-16 0.514495755427525 0.8574929257125451
  outer loop
    vertex 4.417136819895291 38.641764512387496 2.8199664825478975e-15
    vertex 7.01527801328521 28.641764512387407 5.999999999999997
    vertex 12.917136819895353 38.641764512387496 2.8199664825478975e-15
  endloop
endfacet
facet normal -6.530533770625853e-16 0.514495755427525 0.8574929257125451
  outer loop
    vertex 12.917136819895353 38.641764512387496 2.8199664825478975e-15
    vertex 7.01527801328521 28.641764512387407 5.999999999999997
    vertex 12.917136819895353 28.6417645123875 5.999999999999997
  endloop
endfacet
facet normal -6.001458359767767e-16 -2.1742051826602639e-16 -1.0
  outer loop
    vertex 4.417136819895291 28.641764512387407 4.229949723821846e-15
    vertex 7.01527801328521 27.230070939389183 2.8199664825478975e-15
    vertex 7.015278013285254 2.0534599927340635 8.459899447643692e-15
  endloop
endfacet
facet normal -6.001458359767767e-16 -2.1742051826602639e-16 -1.0
  outer loop
    vertex 7.01527801328521 27.230070939389183 2.8199664825478975e-15
    vertex 4.417136819895291 28.641764512387407 4.229949723821846e-15
    vertex 7.01527801328521 28.641764512387407 2.8199664825478975e-15
  endloop
endfacet
facet normal -4.969356863457165e-16 -2.5620918675378874e-16 -1.0
  outer loop
    vertex 7.015278013285254 2.0534599927340635 8.459899447643692e-15
    vertex 4.417136819895346 0.6417664197360408 1.127986593019159e-14
    vertex 4.417136819895291 28.641764512387407 4.229949723821846e-15
  endloop
endfacet
facet normal -4.969356863457165e-16 -2.5620918675378874e-16 -1.0
  outer loop
    vertex 4.417136819895346 0.6417664197360408 1.127986593019159e-14
    vertex 7.015278013285254 2.0534599927340635 8.459899447643692e-15
    vertex 7.015278013285254 0.641766419736086 1.127986593019159e-14
  endloop
endfacet
facet normal 1.0635158386036655e-29 -2.2401478010864177e-16 -1.0
  outer loop
    vertex 10.318995626505398 27.230070939389453 2.8199664825478975e-15
    vertex 7.015278013285254 2.0534599927340635 8.459899447643692e-15
    vertex 7.01527801328521 27.230070939389183 2.8199664825478975e-15
  endloop
endfacet
facet normal 1.0635158386036655e-29 -2.2401478010864177e-16 -1.0
  outer loop
    vertex 7.015278013285254 2.0534599927340635 8.459899447643692e-15
    vertex 10.318995626505398 27.230070939389453 2.8199664825478975e-15
    vertex 10.318995626505442 2.0534599927341084 8.459899447643692e-15
  endloop
endfacet
facet normal -2.127031677207331e-29 4.480295602172834e-16 1.0
  outer loop
    vertex 7.015278013285254 2.0534599927340635 7.926968574523935
    vertex 10.318995626505398 27.230070939389453 7.926968574523924
    vertex 7.01527801328521 27.230070939389183 7.926968574523924
  endloop
endfacet
facet normal -2.127031677207331e-29 4.480295602172834e-16 1.0
  outer loop
    vertex 10.318995626505398 27.230070939389453 7.926968574523924
    vertex 7.015278013285254 2.0534599927340635 7.926968574523935
    vertex 10.318995626505442 2.0534599927341084 7.926968574523935
  endloop
endfacet
endsolid braccioCam1
